# xmcd
#
# Track frame offsets:
#	150
#	17112
#	31610
#	46003
#	72733
#	85584
#	103730
#	121864
#	141345
#	158519
#	175908
#	197989
#	213006
#	232278
#	247119
#	266701
#	286586
#
# Disc length: 4078 seconds
#
# Revision: 1
# Processed by: cddbd v1.5.2PL0 Copyright (c) Steve Scherf et al.
# Submitted via: audiograbber 1.83.01
#
DISCID=ec0fec11
DTITLE=Chartbuster - esp 486-02 5051-02
DYEAR=1900
DGENRE=
TTITLE0=Chesney, Kenny - Keg In The Closet
TTITLE1=Keith, Toby - Big Blue Note
TTITLE2=Jackson, Alan - Talkin' Song Repair Blues
TTITLE3=Brooks and Dunn - Believe
TTITLE4=Shelton, Blake - Nobody But Me
TTITLE5=Morgan, Craig - Redneck Yacht Club
TTITLE6=Bentley, Dierks - Lot Of Leavin' Left To Do
TTITLE7=Currington, Billy - Must Be Doin Something Right
TTITLE8=McGraw, Tim - My Old Friend
TTITLE9=Aldean, Jason - Hicktown
TTITLE10=Worley, Darryl - If Something Should Happen
TTITLE11=Montgomery Gentry - She Don't Tell Me To
TTITLE12=Allan, Gary - Best I Ever Had
TTITLE13=Anderson, Keith - Pickin' Wildflowers
TTITLE14=Gracin, Josh - Stay With Me (Brass Bed)
TTITLE15=Urban, Keith - Making Memories Of Us
TTITLE16=Larsen, Blaine - How Do You Get That Lonely
EXTD=
EXTT0=
EXTT1=
EXTT2=
EXTT3=
EXTT4=
EXTT5=
EXTT6=
EXTT7=
EXTT8=
EXTT9=
EXTT10=
EXTT11=
EXTT12=
EXTT13=
EXTT14=
EXTT15=
EXTT16=
PLAYORDER=
